<?xml version="1.0" encoding="UTF-8"?> <svg xmlns="http://www.w3.org/2000/svg" width="144" height="15" viewBox="0 0 144 15" fill="none"><g clip-path="url(#clip0_142_3386)"><path d="M39.2106 3.74902C37.4003 3.74902 36.0208 4.47162 35.1737 5.72769V4.01091H33.2715V14.9954H35.2221V9.65106C35.2221 7.18258 36.7904 5.5628 39.0412 5.5628C41.1419 5.5628 42.2309 6.81886 42.2309 9.09335V14.9954H44.1816V8.92361C44.1816 5.80043 42.3278 3.74902 39.2106 3.74902Z" fill="#141414"></path><path d="M51.9408 14.9999C54.937 14.9999 57.2748 13.6226 57.2748 11.3966C57.2748 9.43735 55.6824 8.37527 53.7995 8.32678L50.2951 8.22978C49.1576 8.20554 48.3396 8.0358 48.3396 6.99312C48.3396 5.75646 49.7433 5.126 51.602 5.126C53.4607 5.126 54.937 5.78071 55.058 7.11436H57.0619C56.9409 4.79138 54.4094 3.48682 51.6068 3.48682C48.8043 3.48682 46.4664 4.88837 46.4664 7.09011C46.4664 8.95238 47.962 9.92232 49.8933 9.96596L53.3977 10.063C54.5594 10.0872 55.4016 10.4509 55.4016 11.4936C55.4016 12.6575 53.9302 13.3607 51.9698 13.3607C50.0095 13.3607 48.296 12.512 48.1992 11.2269H46.1953C46.3163 13.5984 48.8236 14.9999 51.9408 14.9999Z" fill="#141414"></path><path d="M73.4938 0V5.42192C72.5451 4.19981 71.0736 3.47721 69.2585 3.47721C66.1026 3.47721 63.3242 5.6353 63.3242 9.2386C63.3242 12.8419 66.0687 15 69.2149 15C71.1268 15 72.5983 14.2483 73.5325 12.9437V14.7333H75.4444V0H73.4889H73.4938ZM73.4938 9.2677C73.4938 11.7653 71.7222 13.3123 69.4182 13.3123C67.1142 13.3123 65.3136 11.7798 65.3136 9.24345C65.3136 6.70708 67.0271 5.18429 69.4182 5.18429C71.8093 5.18429 73.4938 6.73133 73.4938 9.21435V9.27255V9.2677Z" fill="#141414"></path><path d="M89.3762 8.81168C89.3762 5.63515 86.9996 3.47705 83.4855 3.47705C79.9715 3.47705 77.498 5.5915 77.498 9.23845C77.498 12.8854 80.1748 14.9998 83.5872 14.9998C86.4914 14.9998 88.5873 13.6516 89.3085 11.285H87.2852C86.6608 12.6041 85.4023 13.3413 83.6162 13.3413C81.409 13.3413 79.6084 12.1191 79.4826 9.75251H89.3811V8.81653L89.3762 8.81168ZM79.5213 8.17637C79.7633 6.26076 81.3316 5.12594 83.4855 5.12594C85.7799 5.12594 87.2368 6.45959 87.3772 8.17637H79.5213Z" fill="#141414"></path><path d="M126.255 0H124.305V1.89622H126.255V0Z" fill="#141414"></path><path d="M117.136 8.81168C117.136 5.63515 114.759 3.47705 111.245 3.47705C107.731 3.47705 105.258 5.5915 105.258 9.23845C105.258 12.8854 107.935 14.9998 111.347 14.9998C114.251 14.9998 116.347 13.6516 117.068 11.285H115.045C114.421 12.6041 113.162 13.3413 111.376 13.3413C109.169 13.3413 107.368 12.1191 107.242 9.75251H117.141V8.81653L117.136 8.81168ZM107.281 8.17637C107.523 6.26076 109.091 5.12594 111.245 5.12594C113.54 5.12594 114.997 6.45959 115.137 8.17637H107.281Z" fill="#141414"></path><path d="M125.292 14.9999C128.211 14.9999 130.336 13.5256 131.038 10.9893H128.985C128.38 12.4878 127.078 13.288 125.292 13.288C122.998 13.288 121.158 11.7895 121.158 9.2434C121.158 6.69732 122.998 5.20363 125.292 5.20363C127.078 5.20363 128.38 6.00382 128.985 7.50237H131.038C130.341 4.96115 128.211 3.4917 125.292 3.4917C121.86 3.4917 119.184 5.61585 119.184 9.24825C119.184 12.8806 121.86 15.0048 125.292 15.0048" fill="#141414"></path><path d="M139.023 3.74879C137.237 3.74879 135.882 4.44714 135.035 5.6547V0H133.084V15H135.035V9.65082C135.035 7.18235 136.603 5.56256 138.854 5.56256C140.954 5.56256 142.043 6.81862 142.043 9.09311V14.9951H143.994V8.92338C143.994 5.80019 142.14 3.74879 139.023 3.74879Z" fill="#141414"></path><path d="M61.2788 0H59.3281V1.89622H61.2788V0Z" fill="#141414"></path><path d="M61.2788 4.01562H59.3281V15.0001H61.2788V4.01562Z" fill="#141414"></path><path d="M30.7553 0H28.8047V1.89622H30.7553V0Z" fill="#141414"></path><path d="M30.7553 4.01562H28.8047V15.0001H30.7553V4.01562Z" fill="#141414"></path><path d="M103.926 15V13.3608H102.024C100.814 13.3608 100.233 12.9001 100.233 11.547V5.66925H103.757V4.03007H100.233V0H98.2823V4.02522H95.7266V5.6644H98.2823V11.5907C98.2823 13.9088 99.6085 14.9951 101.782 14.9951H103.926V15Z" fill="#141414"></path><path d="M22.4543 4.01562H0V6.07188H22.4543V4.01562Z" fill="#141414"></path><path d="M14.9656 8.48193H7.48242V10.5382H14.9656V8.48193Z" fill="#141414"></path><path d="M14.9656 12.9438H7.48242V15.0001H14.9656V12.9438Z" fill="#141414"></path></g><defs><clipPath id="clip0_142_3386"><rect width="144" height="15" fill="white"></rect></clipPath></defs></svg> 