<svg id="Слой_2" data-name="Слой 2" xmlns="http://www.w3.org/2000/svg" viewBox="0 0 410.35 79.06"><defs><style>.cls-1{fill:#eb7b34;}</style></defs><title>NSV-logo-vector</title><path class="cls-1" d="M106,430.38v27.08H93.12V398.6H106v22h21.45v-22h12.87v58.86H127.45V430.38Z" transform="translate(-93.12 -381.89)"/><path class="cls-1" d="M166.56,445.27,162,457.46h-13l22.21-58.86H183.2l22.21,58.86H192.46l-4.54-12.19Zm10.67-28.5-7.06,18.74h14.12Z" transform="translate(-93.12 -381.89)"/><path class="cls-1" d="M280.13,407.51l-6.38,7.71A25.85,25.85,0,0,0,268,411.3a15,15,0,0,0-6.15-1.11,13,13,0,0,0-10.95,5.13q-3.92,5.13-3.91,14.86,0,7.31,2.32,11.66a13.73,13.73,0,0,0,5.7,6.07,15,15,0,0,0,6.84,1.7q7.68,0,13-6.89l8,6.29a37.68,37.68,0,0,1-7.36,7.1,25,25,0,0,1-7.6,3.74,30.3,30.3,0,0,1-8.31,1.1,27,27,0,0,1-11.56-2.4,25.12,25.12,0,0,1-8.71-6.67,29.78,29.78,0,0,1-5.43-9.86A37.12,37.12,0,0,1,232,430.29a35.3,35.3,0,0,1,2.34-13.21,28.17,28.17,0,0,1,6.4-9.79,27.77,27.77,0,0,1,9.19-6,28.7,28.7,0,0,1,10.61-2,29.53,29.53,0,0,1,10.79,2.14A21.65,21.65,0,0,1,280.13,407.51Z" transform="translate(-93.12 -381.89)"/><path class="cls-1" d="M292,400.72h24.11a25.63,25.63,0,0,1,10.5,1.9,14,14,0,0,1,6.29,5.19,13.62,13.62,0,0,1,2.05,7.34,15.82,15.82,0,0,1-1.2,6.09,11.35,11.35,0,0,1-3.64,4.77,10.3,10.3,0,0,1-5.91,2v1a15,15,0,0,1,7,1.66,13.07,13.07,0,0,1,5.19,4.76,13.2,13.2,0,0,1,2,7.2q0,7.35-3.78,11.1a17.12,17.12,0,0,1-8.45,4.77,42.87,42.87,0,0,1-9.21,1H292Zm12.86,9.74v13.6h7.24a13.67,13.67,0,0,0,6.11-1.29q2.63-1.27,2.63-5.67c0-2.68-.89-4.45-2.66-5.33a15.52,15.52,0,0,0-6.84-1.31Zm0,23.34v16h8.41a15.91,15.91,0,0,0,7.35-1.46c1.88-1,2.82-3,2.82-6.2q0-5.34-3.3-6.82a18.26,18.26,0,0,0-7.63-1.49Z" transform="translate(-93.12 -381.89)"/><path class="cls-1" d="M377.73,435.91h-2.79a9.89,9.89,0,0,0-4.58.92,7.36,7.36,0,0,0-2.71,2.34,33.55,33.55,0,0,0-2.18,4,90.42,90.42,0,0,1-5.16,9.46,22.59,22.59,0,0,1-5.4,6,11,11,0,0,1-6.82,2.3,12.6,12.6,0,0,1-4.88-.95V450.1a7.26,7.26,0,0,0,2.63-.54,4.42,4.42,0,0,0,1.58-1.12,7.69,7.69,0,0,0,1-1.68c.31-.69.62-1.36.9-2a28.45,28.45,0,0,1,4.37-7.16,19.31,19.31,0,0,1,6.21-4.26,25.32,25.32,0,0,1-5.85-2.19,15.14,15.14,0,0,1-5.36-4.88,14.43,14.43,0,0,1-2.38-8.56,19.64,19.64,0,0,1,.86-5.66,14.6,14.6,0,0,1,3.16-5.45,16.36,16.36,0,0,1,6.58-4.22,30.36,30.36,0,0,1,10.73-1.63h22.92v58.79H377.73Zm0-25.45h-6.05a19,19,0,0,0-8.11,1.48q-3.13,1.47-3.13,6.5a7.81,7.81,0,0,0,2.1,5.4q2.1,2.32,7.63,2.33h7.56Z" transform="translate(-93.12 -381.89)"/><path class="cls-1" d="M407.73,414.15,402,406a34.2,34.2,0,0,1,20.67-6.73,29.11,29.11,0,0,1,11.3,2,17.09,17.09,0,0,1,7.39,5.51,12.8,12.8,0,0,1,2.55,7.76,18.36,18.36,0,0,1-1.95,8.54c-1.31,2.52-4,4.27-8.2,5.22v.93a17.18,17.18,0,0,1,5.91,1.78,12.4,12.4,0,0,1,4.72,4.26,12.23,12.23,0,0,1,1.88,6.9,16.78,16.78,0,0,1-2.78,9.29,19.24,19.24,0,0,1-8.23,6.88,30.58,30.58,0,0,1-13.1,2.57,34.6,34.6,0,0,1-8.6-1,31.88,31.88,0,0,1-7.42-2.93,45,45,0,0,1-6.83-4.69l6.21-7.89a38,38,0,0,0,8.34,4.38,25.54,25.54,0,0,0,8.48,1.32,8.38,8.38,0,0,0,6.5-2.71,9.54,9.54,0,0,0,2.48-6.71q0-6.79-9-6.8h-5.64v-9.74h4.62q4.65,0,6.61-2.19a8,8,0,0,0,2-5.54,5.64,5.64,0,0,0-2.59-4.65,11.61,11.61,0,0,0-7.07-1.92,17.74,17.74,0,0,0-6.1,1A35.27,35.27,0,0,0,407.73,414.15Z" transform="translate(-93.12 -381.89)"/><path class="cls-1" d="M468.86,436.16l21.76-28.31v-7.13h12.86v58.79H490.62V424l-21.76,28v7.56H456V400.72h12.86Z" transform="translate(-93.12 -381.89)"/><polygon class="cls-1" points="118 31.45 123.12 30.96 129.63 18.71 140.9 9.62 140.37 4.9 111.76 0 107.97 4.63 118 31.45"/></svg>