<svg width="144" height="35" viewBox="0 0 144 35" fill="none" xmlns="http://www.w3.org/2000/svg">
<path d="M5.038 7.504C4.254 7.504 3.806 7.42 3.694 7.252C3.582 7.056 3.68 6.58 3.988 5.824L5.416 2.338C5.556 1.946 5.682 1.652 5.794 1.456C5.934 1.232 6.088 1.064 6.256 0.951998C6.424 0.811998 6.62 0.727998 6.844 0.699998C7.096 0.671999 7.418 0.657999 7.81 0.657999H23.98C24.764 0.657999 25.212 0.755999 25.324 0.951998C25.436 1.12 25.338 1.582 25.03 2.338L23.644 5.824C23.476 6.188 23.336 6.482 23.224 6.706C23.112 6.93 22.972 7.112 22.804 7.252C22.636 7.364 22.426 7.434 22.174 7.462C21.922 7.49 21.6 7.504 21.208 7.504H17.344L9.742 26.32C9.602 26.684 9.462 26.978 9.322 27.202C9.21 27.426 9.07 27.608 8.902 27.748C8.734 27.86 8.524 27.93 8.272 27.958C8.048 27.986 7.74 28 7.348 28H2.35C1.566 28 1.118 27.916 1.006 27.748C0.894 27.552 0.992 27.076 1.3 26.32L8.902 7.504H5.038ZM28.2535 21.994C28.7575 21.994 29.1075 21.924 29.3035 21.784C29.4995 21.644 29.6955 21.336 29.8915 20.86L33.3775 12.208C33.5735 11.732 33.6295 11.424 33.5455 11.284C33.4615 11.144 33.1675 11.074 32.6635 11.074H31.8235C31.3195 11.074 30.9695 11.144 30.7735 11.284C30.5775 11.424 30.3815 11.732 30.1855 12.208L26.6995 20.86C26.5035 21.336 26.4475 21.644 26.5315 21.784C26.6155 21.924 26.9095 21.994 27.4135 21.994H28.2535ZM23.2135 28.168C19.6295 28.168 17.8375 26.992 17.8375 24.64C17.8375 23.744 18.1175 22.582 18.6775 21.154L22.4155 11.956C23.0875 10.332 23.6755 9.058 24.1795 8.134C24.6835 7.21 25.2715 6.51 25.9435 6.034C26.6435 5.558 27.5115 5.264 28.5475 5.152C29.5835 5.012 30.9415 4.942 32.6215 4.942H36.8215C40.4055 4.942 42.1975 6.104 42.1975 8.428C42.1975 9.352 41.9175 10.528 41.3575 11.956L37.6615 21.154C37.0175 22.778 36.4295 24.052 35.8975 24.976C35.3935 25.9 34.7915 26.6 34.0915 27.076C33.4195 27.552 32.5655 27.86 31.5295 28C30.4935 28.112 29.1355 28.168 27.4555 28.168H23.2135ZM43.6997 32.83C43.4197 33.474 43.1537 33.88 42.9017 34.048C42.6777 34.216 42.2297 34.3 41.5577 34.3H36.6857C36.0137 34.3 35.6357 34.216 35.5517 34.048C35.4397 33.88 35.5237 33.474 35.8037 32.83L46.3877 6.58C46.6677 5.936 46.9197 5.53 47.1437 5.362C47.3677 5.194 47.8157 5.11 48.4877 5.11H58.3997C60.9477 5.11 62.5857 5.684 63.3137 6.832C64.0417 7.952 63.9157 9.716 62.9357 12.124L59.3237 20.986C58.6797 22.582 58.0917 23.856 57.5597 24.808C57.0557 25.732 56.4537 26.432 55.7537 26.908C55.0817 27.384 54.2277 27.692 53.1917 27.832C52.1837 27.944 50.8397 28 49.1597 28H45.6317L43.6997 32.83ZM49.8737 21.994C50.3777 21.994 50.7137 21.938 50.8817 21.826C51.0777 21.686 51.2737 21.378 51.4697 20.902L54.9977 12.166C55.1937 11.69 55.2497 11.396 55.1657 11.284C55.0817 11.144 54.7877 11.074 54.2837 11.074H52.4777L48.0677 21.994H49.8737ZM67.7509 7.504C66.9669 7.504 66.5189 7.42 66.4069 7.252C66.2949 7.056 66.3929 6.58 66.7009 5.824L68.1289 2.338C68.2689 1.946 68.3949 1.652 68.5069 1.456C68.6469 1.232 68.8009 1.064 68.9689 0.951998C69.1369 0.811998 69.3329 0.727998 69.5569 0.699998C69.8089 0.671999 70.1309 0.657999 70.5229 0.657999H86.6929C87.4769 0.657999 87.9249 0.755999 88.0369 0.951998C88.1489 1.12 88.0509 1.582 87.7429 2.338L86.3569 5.824C86.1889 6.188 86.0489 6.482 85.9369 6.706C85.8249 6.93 85.6849 7.112 85.5169 7.252C85.3489 7.364 85.1389 7.434 84.8869 7.462C84.6349 7.49 84.3129 7.504 83.9209 7.504H80.0569L72.4549 26.32C72.3149 26.684 72.1749 26.978 72.0349 27.202C71.9229 27.426 71.7829 27.608 71.6149 27.748C71.4469 27.86 71.2369 27.93 70.9849 27.958C70.7609 27.986 70.4529 28 70.0609 28H65.0629C64.2789 28 63.8309 27.916 63.7189 27.748C63.6069 27.552 63.7049 27.076 64.0129 26.32L71.6149 7.504H67.7509ZM84.9184 27.118C84.5264 27.118 84.2744 27.034 84.1624 26.866C84.0504 26.67 84.0224 26.362 84.0784 25.942L86.1364 6.748C86.1924 6.356 86.2484 6.062 86.3044 5.866C86.3604 5.642 86.4444 5.474 86.5564 5.362C86.6964 5.25 86.8784 5.18 87.1024 5.152C87.3544 5.124 87.6904 5.11 88.1104 5.11H92.7724C93.0804 5.11 93.3184 5.124 93.4864 5.152C93.6824 5.152 93.8224 5.194 93.9064 5.278C93.9904 5.362 94.0184 5.488 93.9904 5.656C93.9904 5.824 93.9624 6.076 93.9064 6.412L92.1424 15.358L97.6444 6.412C97.8404 6.076 97.9944 5.824 98.1064 5.656C98.2464 5.488 98.3864 5.362 98.5264 5.278C98.6944 5.194 98.8764 5.152 99.0724 5.152C99.2684 5.124 99.5344 5.11 99.8704 5.11H104.91C105.666 5.11 106.072 5.222 106.128 5.446C106.184 5.67 106.002 6.104 105.582 6.748L87.7744 33.082C87.5784 33.39 87.4104 33.614 87.2704 33.754C87.1304 33.922 86.9764 34.048 86.8084 34.132C86.6684 34.216 86.5004 34.258 86.3044 34.258C86.1084 34.286 85.8564 34.3 85.5484 34.3H79.0804C78.4084 34.3 78.0164 34.216 77.9044 34.048C77.8204 33.88 77.9044 33.474 78.1564 32.83L79.4164 29.722C79.6684 29.106 79.9064 28.714 80.1304 28.546C80.3824 28.378 80.8444 28.294 81.5164 28.294H84.2464L84.9184 27.118ZM107.084 26.53C106.804 27.174 106.538 27.58 106.286 27.748C106.062 27.916 105.614 28 104.942 28H100.07C99.3979 28 99.0059 27.916 98.8939 27.748C98.8099 27.58 98.8939 27.174 99.1459 26.53L107.21 6.58C107.35 6.244 107.476 5.992 107.588 5.824C107.7 5.628 107.826 5.474 107.966 5.362C108.106 5.25 108.288 5.18 108.512 5.152C108.736 5.124 109.016 5.11 109.352 5.11H117.836C120.384 5.11 122.008 5.684 122.708 6.832C123.436 7.952 123.31 9.716 122.33 12.124L120.23 17.416C119.866 18.228 119.25 18.634 118.382 18.634H113.132C112.236 18.634 111.956 18.228 112.292 17.416L114.434 12.166C114.63 11.69 114.686 11.396 114.602 11.284C114.518 11.144 114.224 11.074 113.72 11.074H113.3L107.084 26.53ZM128.458 20.944C128.318 21.308 128.248 21.56 128.248 21.7C128.248 21.868 128.318 21.98 128.458 22.036C128.598 22.064 128.836 22.078 129.172 22.078H129.214C129.69 22.078 130.012 22.022 130.18 21.91C130.348 21.77 130.516 21.448 130.684 20.944L130.768 20.692C130.908 20.244 131.062 19.978 131.23 19.894C131.398 19.81 131.79 19.768 132.406 19.768H137.698C138.23 19.768 138.538 19.866 138.622 20.062C138.706 20.258 138.678 20.566 138.538 20.986L137.698 23.128C137.278 24.22 136.858 25.102 136.438 25.774C136.018 26.446 135.472 26.964 134.8 27.328C134.156 27.664 133.33 27.888 132.322 28C131.314 28.112 129.984 28.168 128.332 28.168H125.014C121.43 28.168 119.638 26.992 119.638 24.64C119.638 23.744 119.918 22.582 120.478 21.154L124.216 11.956C124.86 10.36 125.434 9.1 125.938 8.176C126.47 7.252 127.072 6.552 127.744 6.076C128.444 5.572 129.312 5.264 130.348 5.152C131.384 5.012 132.742 4.942 134.422 4.942H137.824C141.408 4.942 143.2 6.118 143.2 8.47C143.2 9.366 142.92 10.528 142.36 11.956L141.058 15.148C140.722 15.988 140.414 16.66 140.134 17.164C139.854 17.64 139.518 18.004 139.126 18.256C138.762 18.508 138.3 18.676 137.74 18.76C137.208 18.844 136.508 18.886 135.64 18.886H129.298L128.458 20.944ZM133.918 13.3L134.38 12.124C134.576 11.648 134.632 11.34 134.548 11.2C134.464 11.06 134.184 10.99 133.708 10.99H133.666C133.162 10.99 132.812 11.06 132.616 11.2C132.42 11.34 132.224 11.648 132.028 12.124L131.566 13.3H133.918Z" fill="#FC3F1D"/>
</svg>
