<svg xmlns="http://www.w3.org/2000/svg" viewBox="0 0 177 60" fill="none" max-width="177" max-height="60">
<g clip-path="url(#clip0_1_12)">
<path d="M47.6958 40.3226L58.2949 60H43.318C37.4194 49.0323 47.6958 40.3226 47.6958 40.3226ZM80.0922 0.0460822C72.3502 0.0460822 63.5023 1.10599 48.6636 15.53C47.0046 17.1429 43.4562 20.5991 39.2166 24.7005L32.3963 12.0276H17.4194L29.4009 34.2396C21.9816 41.4747 15.3456 47.9263 15.3456 47.9263C7.51152 55.576 4.23963 58.0645 0.184331 59.447C0.138248 59.6313 0.046083 59.8157 0 59.9539H4.19355C8.75576 59.9539 21.7051 59.9539 36.7742 44.8848C48.7558 32.9032 58.5254 23.1336 69.6774 11.9816C77.4194 4.23963 83.1336 1.47465 85.8986 0.506912L86.0829 0H80.0922V0.0460822Z" fill="#36BD47"></path>
<path d="M64.2396 60L79.4931 18.0184H113.594L109.77 28.5253H88.8018L85.7143 37.0507H103.779L100.138 47.0046H82.0737L77.3272 60H64.2396Z" fill="white"></path>
<path d="M104.332 60L119.585 18.0184H132.673L117.419 60H104.332Z" fill="white"></path>
<path d="M134.931 28.5253L138.756 18.0184H176.313L172.489 28.5253H160.783L149.309 60H136.175L147.65 28.5253H134.931Z" fill="white"></path>
</g>
<defs>
<clipPath id="clip0_1_12">
<rect width="177" height="60" fill="white"></rect>
</clipPath>
</defs>
</svg>